<svg xmlns="http://www.w3.org/2000/svg" xmlns:xlink="http://www.w3.org/1999/xlink" width="500" zoomAndPan="magnify" viewBox="0 0 375 374.999991" height="500" preserveAspectRatio="xMidYMid meet" version="1.0"><defs><clipPath id="a188d142f4"><path d="M 195 209 L 273.207031 209 L 273.207031 264 L 195 264 Z M 195 209 " clip-rule="nonzero"/></clipPath><clipPath id="f576534486"><path d="M 110 80.261719 L 273.207031 80.261719 L 273.207031 151 L 110 151 Z M 110 80.261719 " clip-rule="nonzero"/></clipPath><clipPath id="6d5392e9a1"><path d="M 90.207031 125 L 149 125 L 149 197 L 90.207031 197 Z M 90.207031 125 " clip-rule="nonzero"/></clipPath><clipPath id="c7a6ac6fb3"><path d="M 92 199 L 226 199 L 226 282.011719 L 92 282.011719 Z M 92 199 " clip-rule="nonzero"/></clipPath></defs><rect x="-37.5" width="450" fill="#ffffff" y="-37.499999" height="449.999989" fill-opacity="1"/><rect x="-37.5" width="450" fill="#ffffff" y="-37.499999" height="449.999989" fill-opacity="1"/><g clip-path="url(#a188d142f4)"><path fill="#24265d" d="M 237.519531 218.71875 C 237.519531 221.035156 235.632812 222.917969 233.320312 222.917969 C 231.003906 222.917969 229.125 221.035156 229.125 218.71875 C 229.125 216.40625 231.003906 214.519531 233.320312 214.519531 C 235.632812 214.519531 237.519531 216.40625 237.519531 218.71875 Z M 273.195312 218.71875 C 273.195312 214.960938 270.148438 211.910156 266.386719 211.910156 C 263.304688 211.910156 260.703125 213.960938 259.867188 216.773438 L 242.167969 216.773438 C 241.28125 212.703125 237.65625 209.65625 233.320312 209.65625 C 228.316406 209.65625 224.257812 213.714844 224.257812 218.71875 C 224.257812 221.019531 225.121094 223.117188 226.53125 224.714844 C 221.445312 229.464844 215.625 233.242188 209.324219 235.933594 C 208.550781 233.023438 205.90625 230.878906 202.753906 230.878906 C 198.992188 230.878906 195.945312 233.929688 195.945312 237.6875 C 195.945312 241.449219 198.992188 244.496094 202.753906 244.496094 C 205.609375 244.496094 208.050781 242.738281 209.058594 240.242188 C 216.699219 237.257812 223.710938 232.800781 229.734375 227.042969 C 230.257812 227.269531 230.804688 227.445312 231.375 227.570312 L 231.375 246.011719 C 229.476562 246.429688 227.796875 247.441406 226.550781 248.84375 L 213.125 241.324219 L 211.226562 244.71875 L 224.648438 252.234375 C 224.398438 253.066406 224.257812 253.949219 224.257812 254.863281 C 224.257812 259.867188 228.316406 263.925781 233.320312 263.925781 C 238.324219 263.925781 242.378906 259.867188 242.378906 254.863281 C 242.378906 250.527344 239.335938 246.902344 235.265625 246.011719 L 235.265625 227.570312 C 238.660156 226.828125 241.335938 224.183594 242.136719 220.8125 L 259.910156 220.8125 C 260.382812 222.277344 261.335938 223.527344 262.585938 224.371094 C 257.515625 233.3125 250.964844 241.1875 243.339844 247.734375 C 244.125 248.835938 244.730469 250.066406 245.121094 251.394531 C 253.730469 244.144531 260.9375 235.386719 266.394531 225.527344 C 270.152344 225.523438 273.195312 222.476562 273.195312 218.71875 " fill-opacity="1" fill-rule="nonzero"/></g><g clip-path="url(#f576534486)"><path fill="#51aee5" d="M 268.332031 141.53125 C 268.332031 143.84375 266.449219 145.730469 264.132812 145.730469 C 261.820312 145.730469 259.933594 143.84375 259.933594 141.53125 C 259.933594 139.214844 261.820312 137.332031 264.132812 137.332031 C 266.449219 137.332031 268.332031 139.214844 268.332031 141.53125 Z M 229.980469 107.644531 C 226.71875 107.644531 224.0625 104.992188 224.0625 101.726562 C 224.0625 98.464844 226.71875 95.8125 229.980469 95.8125 C 233.242188 95.8125 235.898438 98.464844 235.898438 101.726562 C 235.898438 104.992188 233.242188 107.644531 229.980469 107.644531 Z M 176.800781 89.328125 C 176.800781 91.640625 174.917969 93.523438 172.605469 93.523438 C 170.289062 93.523438 168.40625 91.640625 168.40625 89.328125 C 168.40625 87.011719 170.289062 85.128906 172.605469 85.128906 C 174.917969 85.128906 176.800781 87.011719 176.800781 89.328125 Z M 166.121094 124.191406 C 166.121094 127.453125 163.46875 130.105469 160.207031 130.105469 C 156.945312 130.105469 154.289062 127.453125 154.289062 124.191406 C 154.289062 120.929688 156.945312 118.273438 160.207031 118.273438 C 163.46875 118.273438 166.121094 120.929688 166.121094 124.191406 Z M 273.195312 141.53125 C 273.195312 136.527344 269.136719 132.46875 264.132812 132.46875 C 259.289062 132.46875 255.335938 136.269531 255.085938 141.050781 L 239.554688 141.050781 C 238.683594 139.070312 236.90625 137.585938 234.742188 137.125 L 232.890625 113.785156 C 234.417969 113.414062 235.832031 112.765625 237.082031 111.890625 L 253.671875 129.097656 L 256.472656 126.398438 L 239.882812 109.191406 C 241.449219 107.117188 242.378906 104.53125 242.378906 101.726562 C 242.378906 94.878906 236.832031 89.328125 229.980469 89.328125 C 225.535156 89.328125 221.640625 91.667969 219.449219 95.183594 C 208.816406 91.007812 197.445312 88.84375 185.84375 88.84375 C 184.441406 88.84375 183.046875 88.875 181.65625 88.9375 C 181.453125 84.113281 177.476562 80.265625 172.605469 80.265625 C 167.601562 80.265625 163.542969 84.320312 163.542969 89.328125 C 163.542969 90.070312 163.636719 90.792969 163.804688 91.488281 C 149.757812 94.921875 136.722656 101.644531 125.628906 111.265625 C 126.453125 112.339844 127.070312 113.585938 127.40625 114.941406 C 138.136719 105.425781 151.195312 98.480469 165.605469 95.082031 C 166.226562 95.839844 166.972656 96.488281 167.808594 97.011719 L 162.476562 112 C 161.738281 111.863281 160.980469 111.789062 160.207031 111.789062 C 154.703125 111.789062 150.042969 115.375 148.421875 120.332031 L 124.402344 116.492188 C 123.964844 113.152344 121.117188 110.574219 117.660156 110.574219 C 113.898438 110.574219 110.851562 113.621094 110.851562 117.382812 C 110.851562 121.140625 113.898438 124.191406 117.660156 124.191406 C 120.359375 124.191406 122.6875 122.613281 123.789062 120.332031 L 147.808594 124.175781 L 147.804688 124.191406 C 147.804688 131.039062 153.359375 136.59375 160.207031 136.59375 C 167.054688 136.59375 172.605469 131.039062 172.605469 124.191406 C 172.605469 119.492188 169.992188 115.40625 166.144531 113.300781 L 171.472656 98.316406 C 171.84375 98.363281 172.222656 98.390625 172.605469 98.390625 C 174.625 98.390625 176.492188 97.726562 178 96.605469 L 197.097656 113.253906 L 199.652344 110.320312 L 180.554688 93.675781 C 180.695312 93.417969 180.828125 93.148438 180.945312 92.875 C 182.566406 92.785156 184.199219 92.734375 185.84375 92.734375 C 197 92.734375 207.855469 94.875 217.925781 98.828125 C 217.703125 99.757812 217.582031 100.726562 217.582031 101.726562 C 217.582031 108.25 222.617188 113.59375 229.011719 114.089844 L 230.734375 135.796875 C 225.761719 130.828125 220.066406 126.777344 213.875 123.738281 C 213.910156 123.457031 213.9375 123.175781 213.9375 122.882812 C 213.9375 119.125 210.886719 116.074219 207.128906 116.074219 C 204.738281 116.074219 202.636719 117.3125 201.421875 119.179688 C 196.398438 117.917969 191.171875 117.265625 185.84375 117.265625 C 182.035156 117.265625 178.300781 117.605469 174.671875 118.25 C 175.164062 119.441406 175.511719 120.707031 175.691406 122.023438 C 178.992188 121.457031 182.382812 121.15625 185.84375 121.15625 C 190.796875 121.15625 195.648438 121.761719 200.324219 122.917969 C 200.339844 126.664062 203.382812 129.695312 207.128906 129.695312 C 209.203125 129.695312 211.054688 128.761719 212.300781 127.300781 C 218.253906 130.242188 223.714844 134.183594 228.457031 139.023438 C 227.253906 140.253906 226.511719 141.929688 226.511719 143.785156 C 226.511719 147.542969 229.558594 150.59375 233.320312 150.59375 C 236.683594 150.59375 239.46875 148.148438 240.023438 144.941406 L 255.738281 144.941406 C 257.085938 148.253906 260.335938 150.59375 264.132812 150.59375 C 269.136719 150.59375 273.195312 146.535156 273.195312 141.53125 " fill-opacity="1" fill-rule="nonzero"/></g><g clip-path="url(#6d5392e9a1)"><path fill="#51aee5" d="M 100.609375 157.402344 C 100.609375 159.367188 99.011719 160.96875 97.042969 160.96875 C 95.078125 160.96875 93.476562 159.367188 93.476562 157.402344 C 93.476562 155.433594 95.078125 153.835938 97.042969 153.835938 C 99.011719 153.835938 100.609375 155.433594 100.609375 157.402344 Z M 123.25 178.582031 C 126.511719 178.582031 129.167969 181.234375 129.167969 184.496094 C 129.167969 187.761719 126.511719 190.414062 123.25 190.414062 C 119.988281 190.414062 117.335938 187.761719 117.335938 184.496094 C 117.335938 181.234375 119.988281 178.582031 123.25 178.582031 Z M 148.375 134.402344 C 147.523438 133.417969 146.792969 132.328125 146.207031 131.15625 C 141.992188 134.519531 138.21875 138.410156 134.972656 142.71875 C 133.878906 141.96875 132.554688 141.53125 131.128906 141.53125 C 127.441406 141.53125 124.445312 144.46875 124.332031 148.132812 L 102.84375 153.847656 C 102.65625 153.542969 102.445312 153.25 102.214844 152.980469 C 105.351562 143.617188 110.015625 134.949219 115.914062 127.277344 C 114.527344 127.035156 113.242188 126.507812 112.113281 125.757812 C 106.355469 133.421875 101.886719 141.867188 98.796875 150.828125 C 98.238281 150.679688 97.652344 150.59375 97.042969 150.59375 C 93.285156 150.59375 90.238281 153.640625 90.238281 157.402344 C 90.238281 160.484375 92.289062 163.085938 95.097656 163.925781 L 95.097656 196.902344 L 98.988281 196.902344 L 98.988281 163.925781 C 101.738281 163.105469 103.75 160.601562 103.839844 157.605469 L 125.332031 151.894531 C 125.980469 152.945312 126.898438 153.808594 128 154.378906 C 125.449219 159.910156 123.675781 165.867188 122.808594 172.105469 C 116.164062 172.34375 110.851562 177.796875 110.851562 184.496094 C 110.851562 191.347656 116.402344 196.902344 123.25 196.902344 C 130.097656 196.902344 135.648438 191.347656 135.648438 184.496094 C 135.648438 178.835938 131.855469 174.0625 126.667969 172.578125 C 127.535156 166.398438 129.355469 160.519531 131.964844 155.09375 C 135.332031 154.679688 137.9375 151.816406 137.9375 148.339844 C 137.9375 147.46875 137.769531 146.644531 137.472656 145.878906 C 140.589844 141.589844 144.253906 137.730469 148.375 134.402344 " fill-opacity="1" fill-rule="nonzero"/></g><g clip-path="url(#c7a6ac6fb3)"><path fill="#24265d" d="M 196.269531 269.609375 C 196.269531 272.875 193.617188 275.527344 190.355469 275.527344 C 187.089844 275.527344 184.4375 272.875 184.4375 269.609375 C 184.4375 266.347656 187.089844 263.691406 190.355469 263.691406 C 193.617188 263.691406 196.269531 266.347656 196.269531 269.609375 Z M 176.171875 238.992188 C 176.171875 240.957031 174.570312 242.558594 172.605469 242.558594 C 170.640625 242.558594 169.039062 240.957031 169.039062 238.992188 C 169.039062 237.023438 170.640625 235.425781 172.605469 235.425781 C 174.570312 235.425781 176.171875 237.023438 176.171875 238.992188 Z M 101.792969 213.855469 C 99.476562 213.855469 97.59375 211.972656 97.59375 209.65625 C 97.59375 207.34375 99.476562 205.460938 101.792969 205.460938 C 104.105469 205.460938 105.988281 207.34375 105.988281 209.65625 C 105.988281 211.972656 104.105469 213.855469 101.792969 213.855469 Z M 133.742188 218.71875 C 133.742188 216.40625 135.625 214.519531 137.9375 214.519531 C 140.253906 214.519531 142.136719 216.40625 142.136719 218.71875 C 142.136719 221.035156 140.253906 222.917969 137.9375 222.917969 C 135.625 222.917969 133.742188 221.035156 133.742188 218.71875 Z M 225.277344 264.160156 C 224.246094 263.265625 223.363281 262.203125 222.671875 261.011719 C 216.292969 263.957031 209.550781 266.152344 202.574219 267.511719 C 201.574219 261.664062 196.488281 257.207031 190.355469 257.207031 C 188.78125 257.207031 187.277344 257.503906 185.894531 258.039062 L 177.558594 243.65625 C 178.703125 242.433594 179.414062 240.796875 179.414062 238.992188 C 179.414062 235.230469 176.367188 232.183594 172.605469 232.183594 C 169.199219 232.183594 166.386719 234.6875 165.886719 237.953125 L 135.117188 242.199219 C 133.574219 237.105469 128.847656 233.398438 123.25 233.398438 C 120.773438 233.398438 118.464844 234.128906 116.527344 235.382812 C 112.289062 229.992188 108.664062 224.097656 105.757812 217.808594 C 107.550781 216.933594 109.011719 215.480469 109.902344 213.695312 L 128.882812 218.457031 C 128.882812 218.542969 128.878906 218.628906 128.878906 218.71875 C 128.878906 223.726562 132.933594 227.78125 137.9375 227.78125 C 142.941406 227.78125 147 223.726562 147 218.71875 C 147 213.714844 142.941406 209.65625 137.9375 209.65625 C 137.5 209.65625 137.070312 209.691406 136.648438 209.75 L 132.953125 199.910156 L 129.308594 201.277344 L 133.003906 211.117188 C 131.652344 212 130.550781 213.226562 129.828125 214.679688 L 110.84375 209.921875 C 110.847656 209.832031 110.851562 209.746094 110.851562 209.65625 C 110.851562 204.652344 106.796875 200.59375 101.792969 200.59375 C 96.789062 200.59375 92.730469 204.652344 92.730469 209.65625 C 92.730469 214.664062 96.789062 218.71875 101.792969 218.71875 C 101.808594 218.71875 101.828125 218.71875 101.84375 218.71875 C 104.929688 225.570312 108.855469 232.054688 113.59375 238.027344 C 111.878906 240.15625 110.851562 242.855469 110.851562 245.800781 C 110.851562 252.648438 116.402344 258.203125 123.25 258.203125 C 127.136719 258.203125 130.605469 256.410156 132.878906 253.613281 L 147.996094 262.347656 C 147.878906 262.855469 147.808594 263.382812 147.808594 263.925781 C 147.808594 267.6875 150.855469 270.734375 154.613281 270.734375 C 158.375 270.734375 161.421875 267.6875 161.421875 263.925781 C 161.421875 260.164062 158.375 257.117188 154.613281 257.117188 C 152.804688 257.117188 151.164062 257.828125 149.945312 258.980469 L 134.828125 250.242188 C 135.328125 248.941406 135.613281 247.527344 135.644531 246.054688 L 166.414062 241.808594 C 167.484375 244.164062 169.851562 245.800781 172.605469 245.800781 C 173.152344 245.800781 173.683594 245.730469 174.191406 245.609375 L 182.53125 259.992188 C 179.941406 262.101562 178.222656 265.234375 177.984375 268.777344 C 173.324219 268.363281 168.765625 267.582031 164.335938 266.46875 C 163.992188 267.789062 163.378906 269.007812 162.566406 270.058594 C 167.703125 271.394531 172.976562 272.285156 178.347656 272.71875 C 179.726562 278.0625 184.578125 282.011719 190.355469 282.011719 C 196.566406 282.011719 201.710938 277.441406 202.613281 271.480469 C 210.457031 270.035156 218.070312 267.582031 225.277344 264.160156 " fill-opacity="1" fill-rule="nonzero"/></g></svg>