<svg xmlns="http://www.w3.org/2000/svg" xmlns:xlink="http://www.w3.org/1999/xlink" width="500" zoomAndPan="magnify" viewBox="0 0 375 374.999991" height="500" preserveAspectRatio="xMidYMid meet" version="1.0"><defs><clipPath id="0ca038119d"><path d="M 194 189 L 230.546875 189 L 230.546875 215 L 194 215 Z M 194 189 " clip-rule="nonzero"/></clipPath><clipPath id="af8aa414c0"><path d="M 154 128.1875 L 230.546875 128.1875 L 230.546875 162 L 154 162 Z M 154 128.1875 " clip-rule="nonzero"/></clipPath><clipPath id="7542a066e2"><path d="M 144.296875 149 L 172 149 L 172 184 L 144.296875 184 Z M 144.296875 149 " clip-rule="nonzero"/></clipPath><clipPath id="7c3a00dd0f"><path d="M 145 184 L 208 184 L 208 223.4375 L 145 223.4375 Z M 145 184 " clip-rule="nonzero"/></clipPath></defs><g clip-path="url(#0ca038119d)"><path fill="#24265d" d="M 213.726562 193.554688 C 213.726562 194.648438 212.835938 195.539062 211.746094 195.539062 C 210.65625 195.539062 209.769531 194.648438 209.769531 193.554688 C 209.769531 192.460938 210.65625 191.574219 211.746094 191.574219 C 212.835938 191.574219 213.726562 192.460938 213.726562 193.554688 Z M 230.539062 193.554688 C 230.539062 191.78125 229.101562 190.339844 227.332031 190.339844 C 225.878906 190.339844 224.652344 191.308594 224.257812 192.636719 L 215.917969 192.636719 C 215.496094 190.714844 213.789062 189.277344 211.746094 189.277344 C 209.390625 189.277344 207.476562 191.191406 207.476562 193.554688 C 207.476562 194.640625 207.882812 195.632812 208.546875 196.386719 C 206.148438 198.628906 203.40625 200.414062 200.4375 201.683594 C 200.074219 200.308594 198.828125 199.296875 197.339844 199.296875 C 195.570312 199.296875 194.132812 200.734375 194.132812 202.511719 C 194.132812 204.285156 195.570312 205.726562 197.339844 205.726562 C 198.6875 205.726562 199.835938 204.894531 200.3125 203.714844 C 203.914062 202.308594 207.21875 200.203125 210.054688 197.484375 C 210.304688 197.59375 210.5625 197.675781 210.832031 197.734375 L 210.832031 206.441406 C 209.933594 206.636719 209.144531 207.113281 208.554688 207.777344 L 202.230469 204.226562 L 201.332031 205.832031 L 207.660156 209.378906 C 207.542969 209.773438 207.476562 210.1875 207.476562 210.621094 C 207.476562 212.984375 209.390625 214.898438 211.746094 214.898438 C 214.105469 214.898438 216.015625 212.984375 216.015625 210.621094 C 216.015625 208.570312 214.582031 206.863281 212.664062 206.441406 L 212.664062 197.734375 C 214.261719 197.382812 215.523438 196.136719 215.902344 194.542969 L 224.277344 194.542969 C 224.5 195.234375 224.949219 195.824219 225.539062 196.222656 C 223.148438 200.445312 220.0625 204.164062 216.46875 207.253906 C 216.839844 207.773438 217.125 208.355469 217.308594 208.980469 C 221.367188 205.558594 224.761719 201.425781 227.335938 196.769531 C 229.105469 196.769531 230.539062 195.328125 230.539062 193.554688 " fill-opacity="1" fill-rule="nonzero"/></g><g clip-path="url(#af8aa414c0)"><path fill="#51aee5" d="M 228.246094 157.113281 C 228.246094 158.207031 227.359375 159.09375 226.269531 159.09375 C 225.175781 159.09375 224.289062 158.207031 224.289062 157.113281 C 224.289062 156.019531 225.175781 155.132812 226.269531 155.132812 C 227.359375 155.132812 228.246094 156.019531 228.246094 157.113281 Z M 210.171875 141.117188 C 208.636719 141.117188 207.382812 139.863281 207.382812 138.320312 C 207.382812 136.78125 208.636719 135.527344 210.171875 135.527344 C 211.710938 135.527344 212.960938 136.78125 212.960938 138.320312 C 212.960938 139.863281 211.710938 141.117188 210.171875 141.117188 Z M 185.113281 132.464844 C 185.113281 133.558594 184.222656 134.449219 183.132812 134.449219 C 182.042969 134.449219 181.15625 133.558594 181.15625 132.464844 C 181.15625 131.375 182.042969 130.484375 183.132812 130.484375 C 184.222656 130.484375 185.113281 131.375 185.113281 132.464844 Z M 180.078125 148.925781 C 180.078125 150.46875 178.828125 151.71875 177.289062 151.71875 C 175.753906 151.71875 174.503906 150.46875 174.503906 148.925781 C 174.503906 147.386719 175.753906 146.132812 177.289062 146.132812 C 178.828125 146.132812 180.078125 147.386719 180.078125 148.925781 Z M 230.539062 157.113281 C 230.539062 154.75 228.625 152.835938 226.269531 152.835938 C 223.984375 152.835938 222.121094 154.628906 222.003906 156.886719 L 214.683594 156.886719 C 214.273438 155.953125 213.4375 155.25 212.417969 155.035156 L 211.542969 144.011719 C 212.261719 143.839844 212.929688 143.535156 213.519531 143.121094 L 221.339844 151.242188 L 222.65625 149.96875 L 214.839844 141.84375 C 215.578125 140.867188 216.015625 139.644531 216.015625 138.320312 C 216.015625 135.089844 213.402344 132.464844 210.171875 132.464844 C 208.078125 132.464844 206.242188 133.570312 205.210938 135.230469 C 200.199219 133.261719 194.839844 132.238281 189.371094 132.238281 C 188.710938 132.238281 188.054688 132.253906 187.398438 132.28125 C 187.300781 130.003906 185.429688 128.1875 183.132812 128.1875 C 180.773438 128.1875 178.863281 130.105469 178.863281 132.464844 C 178.863281 132.820312 178.90625 133.160156 178.988281 133.488281 C 172.367188 135.109375 166.222656 138.28125 160.992188 142.824219 C 161.382812 143.332031 161.671875 143.921875 161.832031 144.558594 C 166.890625 140.066406 173.042969 136.789062 179.835938 135.183594 C 180.128906 135.539062 180.480469 135.847656 180.871094 136.09375 L 178.359375 143.171875 C 178.011719 143.105469 177.65625 143.070312 177.289062 143.070312 C 174.695312 143.070312 172.5 144.765625 171.734375 147.105469 L 160.417969 145.292969 C 160.210938 143.714844 158.867188 142.496094 157.238281 142.496094 C 155.46875 142.496094 154.03125 143.9375 154.03125 145.710938 C 154.03125 147.488281 155.46875 148.925781 157.238281 148.925781 C 158.511719 148.925781 159.609375 148.183594 160.125 147.105469 L 171.445312 148.921875 L 171.445312 148.925781 C 171.445312 152.160156 174.0625 154.78125 177.289062 154.78125 C 180.515625 154.78125 183.132812 152.160156 183.132812 148.925781 C 183.132812 146.707031 181.902344 144.78125 180.085938 143.785156 L 182.597656 136.710938 C 182.773438 136.734375 182.953125 136.746094 183.132812 136.746094 C 184.085938 136.746094 184.964844 136.433594 185.675781 135.902344 L 194.675781 143.765625 L 195.878906 142.378906 L 186.878906 134.519531 C 186.945312 134.398438 187.007812 134.273438 187.0625 134.140625 C 187.828125 134.101562 188.597656 134.074219 189.371094 134.074219 C 194.628906 134.074219 199.746094 135.085938 204.492188 136.953125 C 204.386719 137.390625 204.328125 137.851562 204.328125 138.320312 C 204.328125 141.402344 206.703125 143.921875 209.714844 144.15625 L 210.527344 154.40625 C 208.183594 152.0625 205.5 150.148438 202.582031 148.714844 C 202.601562 148.582031 202.609375 148.445312 202.609375 148.308594 C 202.609375 146.535156 201.175781 145.097656 199.402344 145.097656 C 198.277344 145.097656 197.285156 145.679688 196.714844 146.558594 C 194.347656 145.964844 191.882812 145.65625 189.371094 145.65625 C 187.578125 145.65625 185.816406 145.816406 184.105469 146.121094 C 184.339844 146.683594 184.503906 147.28125 184.589844 147.902344 C 186.144531 147.636719 187.742188 147.496094 189.371094 147.496094 C 191.707031 147.496094 193.992188 147.78125 196.195312 148.324219 C 196.203125 150.09375 197.636719 151.523438 199.402344 151.523438 C 200.378906 151.523438 201.253906 151.085938 201.839844 150.394531 C 204.644531 151.785156 207.21875 153.644531 209.453125 155.929688 C 208.886719 156.511719 208.539062 157.300781 208.539062 158.175781 C 208.539062 159.953125 209.972656 161.390625 211.746094 161.390625 C 213.332031 161.390625 214.644531 160.238281 214.90625 158.722656 L 222.3125 158.722656 C 222.949219 160.289062 224.480469 161.390625 226.269531 161.390625 C 228.625 161.390625 230.539062 159.476562 230.539062 157.113281 " fill-opacity="1" fill-rule="nonzero"/></g><g clip-path="url(#7542a066e2)"><path fill="#51aee5" d="M 149.203125 164.605469 C 149.203125 165.535156 148.449219 166.289062 147.523438 166.289062 C 146.597656 166.289062 145.84375 165.535156 145.84375 164.605469 C 145.84375 163.675781 146.597656 162.921875 147.523438 162.921875 C 148.449219 162.921875 149.203125 163.675781 149.203125 164.605469 Z M 159.875 174.605469 C 161.410156 174.605469 162.660156 175.859375 162.660156 177.398438 C 162.660156 178.9375 161.410156 180.191406 159.875 180.191406 C 158.335938 180.191406 157.085938 178.9375 157.085938 177.398438 C 157.085938 175.859375 158.335938 174.605469 159.875 174.605469 Z M 171.714844 153.75 C 171.3125 153.285156 170.96875 152.769531 170.691406 152.214844 C 168.707031 153.804688 166.925781 155.640625 165.398438 157.675781 C 164.882812 157.320312 164.257812 157.113281 163.585938 157.113281 C 161.847656 157.113281 160.4375 158.5 160.382812 160.230469 L 150.257812 162.929688 C 150.167969 162.785156 150.070312 162.648438 149.960938 162.519531 C 151.4375 158.097656 153.636719 154.007812 156.414062 150.382812 C 155.761719 150.269531 155.15625 150.019531 154.625 149.664062 C 151.910156 153.285156 149.804688 157.273438 148.351562 161.503906 C 148.085938 161.433594 147.808594 161.390625 147.523438 161.390625 C 145.75 161.390625 144.316406 162.832031 144.316406 164.605469 C 144.316406 166.0625 145.28125 167.289062 146.605469 167.6875 L 146.605469 183.253906 L 148.441406 183.253906 L 148.441406 167.6875 C 149.734375 167.300781 150.683594 166.117188 150.726562 164.703125 L 160.855469 162.007812 C 161.160156 162.503906 161.59375 162.910156 162.109375 163.179688 C 160.910156 165.789062 160.074219 168.601562 159.664062 171.546875 C 156.535156 171.660156 154.03125 174.234375 154.03125 177.398438 C 154.03125 180.632812 156.648438 183.253906 159.875 183.253906 C 163.101562 183.253906 165.71875 180.632812 165.71875 177.398438 C 165.71875 174.726562 163.929688 172.472656 161.484375 171.769531 C 161.894531 168.851562 162.75 166.078125 163.980469 163.515625 C 165.566406 163.320312 166.796875 161.96875 166.796875 160.328125 C 166.796875 159.917969 166.714844 159.527344 166.578125 159.167969 C 168.042969 157.140625 169.773438 155.320312 171.714844 153.75 " fill-opacity="1" fill-rule="nonzero"/></g><g clip-path="url(#7c3a00dd0f)"><path fill="#24265d" d="M 194.285156 217.582031 C 194.285156 219.121094 193.035156 220.375 191.496094 220.375 C 189.960938 220.375 188.710938 219.121094 188.710938 217.582031 C 188.710938 216.042969 189.960938 214.789062 191.496094 214.789062 C 193.035156 214.789062 194.285156 216.042969 194.285156 217.582031 Z M 184.8125 203.125 C 184.8125 204.054688 184.058594 204.808594 183.132812 204.808594 C 182.207031 204.808594 181.453125 204.054688 181.453125 203.125 C 181.453125 202.199219 182.207031 201.441406 183.132812 201.441406 C 184.058594 201.441406 184.8125 202.199219 184.8125 203.125 Z M 149.761719 191.257812 C 148.671875 191.257812 147.78125 190.371094 147.78125 189.277344 C 147.78125 188.183594 148.671875 187.296875 149.761719 187.296875 C 150.851562 187.296875 151.738281 188.183594 151.738281 189.277344 C 151.738281 190.371094 150.851562 191.257812 149.761719 191.257812 Z M 164.816406 193.554688 C 164.816406 192.460938 165.703125 191.574219 166.796875 191.574219 C 167.886719 191.574219 168.773438 192.460938 168.773438 193.554688 C 168.773438 194.648438 167.886719 195.539062 166.796875 195.539062 C 165.703125 195.539062 164.816406 194.648438 164.816406 193.554688 Z M 207.957031 215.011719 C 207.46875 214.585938 207.054688 214.085938 206.726562 213.523438 C 203.722656 214.914062 200.542969 215.949219 197.257812 216.589844 C 196.785156 213.832031 194.386719 211.726562 191.496094 211.726562 C 190.757812 211.726562 190.046875 211.867188 189.394531 212.121094 L 185.46875 205.328125 C 186.007812 204.753906 186.339844 203.980469 186.339844 203.125 C 186.339844 201.351562 184.90625 199.910156 183.132812 199.910156 C 181.527344 199.910156 180.203125 201.09375 179.964844 202.636719 L 165.464844 204.640625 C 164.738281 202.238281 162.511719 200.484375 159.875 200.484375 C 158.707031 200.484375 157.617188 200.832031 156.707031 201.421875 C 154.707031 198.878906 153 196.09375 151.628906 193.125 C 152.476562 192.710938 153.164062 192.027344 153.582031 191.183594 L 162.527344 193.429688 C 162.527344 193.472656 162.527344 193.511719 162.527344 193.554688 C 162.527344 195.917969 164.4375 197.835938 166.796875 197.835938 C 169.152344 197.835938 171.066406 195.917969 171.066406 193.554688 C 171.066406 191.191406 169.152344 189.277344 166.796875 189.277344 C 166.589844 189.277344 166.386719 189.292969 166.1875 189.320312 L 164.445312 184.675781 L 162.730469 185.320312 L 164.472656 189.96875 C 163.835938 190.382812 163.316406 190.960938 162.972656 191.648438 L 154.027344 189.402344 C 154.027344 189.359375 154.03125 189.320312 154.03125 189.277344 C 154.03125 186.914062 152.117188 185 149.761719 185 C 147.402344 185 145.492188 186.914062 145.492188 189.277344 C 145.492188 191.640625 147.402344 193.554688 149.761719 193.554688 C 149.769531 193.554688 149.777344 193.554688 149.785156 193.554688 C 151.238281 196.789062 153.089844 199.851562 155.320312 202.671875 C 154.515625 203.675781 154.03125 204.953125 154.03125 206.339844 C 154.03125 209.574219 156.648438 212.195312 159.875 212.195312 C 161.707031 212.195312 163.339844 211.351562 164.410156 210.027344 L 171.535156 214.152344 C 171.480469 214.394531 171.445312 214.640625 171.445312 214.898438 C 171.445312 216.675781 172.882812 218.113281 174.65625 218.113281 C 176.425781 218.113281 177.863281 216.675781 177.863281 214.898438 C 177.863281 213.121094 176.425781 211.683594 174.65625 211.683594 C 173.800781 211.683594 173.027344 212.019531 172.453125 212.5625 L 165.328125 208.4375 C 165.566406 207.824219 165.699219 207.15625 165.714844 206.460938 L 180.214844 204.457031 C 180.722656 205.566406 181.835938 206.339844 183.132812 206.339844 C 183.390625 206.339844 183.640625 206.308594 183.882812 206.25 L 187.8125 213.042969 C 186.589844 214.035156 185.78125 215.515625 185.667969 217.1875 C 183.472656 216.992188 181.324219 216.625 179.238281 216.097656 C 179.074219 216.722656 178.785156 217.296875 178.402344 217.792969 C 180.824219 218.425781 183.308594 218.847656 185.839844 219.050781 C 186.488281 221.574219 188.777344 223.4375 191.496094 223.4375 C 194.425781 223.4375 196.851562 221.28125 197.273438 218.464844 C 200.972656 217.78125 204.558594 216.625 207.957031 215.011719 " fill-opacity="1" fill-rule="nonzero"/></g></svg>