<svg xmlns="http://www.w3.org/2000/svg" version="1.1" xmlns:xlink="http://www.w3.org/1999/xlink" xmlns:svgjs="http://svgjs.com/svgjs" width="1440" height="560" preserveAspectRatio="none" viewBox="0 0 1440 560"><g mask="url(&quot;#SvgjsMask1060&quot;)" fill="none"><path d="M134.32 161.74L199.27 199.24L199.27 274.24L134.32 311.74L69.36 274.24L69.36 199.24zM199.27 499.24L264.23 536.74L264.23 611.74L199.27 649.24L134.32 611.74L134.32 536.74zM329.18 49.24L394.13 86.74L394.13 161.74L329.18 199.24L264.23 161.74L264.23 86.74zM329.18 499.24L394.13 536.74L394.13 611.74L329.18 649.24L264.23 611.74L264.23 536.74zM978.72 499.24L1043.67 536.74L1043.67 611.74L978.72 649.24L913.76 611.74L913.76 536.74zM1108.62 499.24L1173.58 536.74L1173.58 611.74L1108.62 649.24L1043.67 611.74L1043.67 536.74zM1368.44 49.24L1433.39 86.74L1433.39 161.74L1368.44 199.24L1303.49 161.74L1303.49 86.74zM1303.49 161.74L1368.44 199.24L1368.44 274.24L1303.49 311.74L1238.53 274.24L1238.53 199.24zM1368.44 499.24L1433.39 536.74L1433.39 611.74L1368.44 649.24L1303.49 611.74L1303.49 536.74zM1498.35 49.24L1563.3 86.74L1563.3 161.74L1498.35 199.24L1433.39 161.74L1433.39 86.74zM1433.39 161.74L1498.35 199.24L1498.35 274.24L1433.39 311.74L1368.44 274.24L1368.44 199.24z" stroke="rgba(80, 86, 99, 0.15)" stroke-width="2"></path><path d="M126.82 161.74 a7.5 7.5 0 1 0 15 0 a7.5 7.5 0 1 0 -15 0zM191.77 199.24 a7.5 7.5 0 1 0 15 0 a7.5 7.5 0 1 0 -15 0zM191.77 274.24 a7.5 7.5 0 1 0 15 0 a7.5 7.5 0 1 0 -15 0zM126.82 311.74 a7.5 7.5 0 1 0 15 0 a7.5 7.5 0 1 0 -15 0zM61.86 274.24 a7.5 7.5 0 1 0 15 0 a7.5 7.5 0 1 0 -15 0zM61.86 199.24 a7.5 7.5 0 1 0 15 0 a7.5 7.5 0 1 0 -15 0zM191.77 499.24 a7.5 7.5 0 1 0 15 0 a7.5 7.5 0 1 0 -15 0zM256.73 536.74 a7.5 7.5 0 1 0 15 0 a7.5 7.5 0 1 0 -15 0zM256.73 611.74 a7.5 7.5 0 1 0 15 0 a7.5 7.5 0 1 0 -15 0zM191.77 649.24 a7.5 7.5 0 1 0 15 0 a7.5 7.5 0 1 0 -15 0zM126.82 611.74 a7.5 7.5 0 1 0 15 0 a7.5 7.5 0 1 0 -15 0zM126.82 536.74 a7.5 7.5 0 1 0 15 0 a7.5 7.5 0 1 0 -15 0zM321.68 49.24 a7.5 7.5 0 1 0 15 0 a7.5 7.5 0 1 0 -15 0zM386.63 86.74 a7.5 7.5 0 1 0 15 0 a7.5 7.5 0 1 0 -15 0zM386.63 161.74 a7.5 7.5 0 1 0 15 0 a7.5 7.5 0 1 0 -15 0zM321.68 199.24 a7.5 7.5 0 1 0 15 0 a7.5 7.5 0 1 0 -15 0zM256.73 161.74 a7.5 7.5 0 1 0 15 0 a7.5 7.5 0 1 0 -15 0zM256.73 86.74 a7.5 7.5 0 1 0 15 0 a7.5 7.5 0 1 0 -15 0zM321.68 499.24 a7.5 7.5 0 1 0 15 0 a7.5 7.5 0 1 0 -15 0zM386.63 536.74 a7.5 7.5 0 1 0 15 0 a7.5 7.5 0 1 0 -15 0zM386.63 611.74 a7.5 7.5 0 1 0 15 0 a7.5 7.5 0 1 0 -15 0zM321.68 649.24 a7.5 7.5 0 1 0 15 0 a7.5 7.5 0 1 0 -15 0zM971.22 499.24 a7.5 7.5 0 1 0 15 0 a7.5 7.5 0 1 0 -15 0zM1036.17 536.74 a7.5 7.5 0 1 0 15 0 a7.5 7.5 0 1 0 -15 0zM1036.17 611.74 a7.5 7.5 0 1 0 15 0 a7.5 7.5 0 1 0 -15 0zM971.22 649.24 a7.5 7.5 0 1 0 15 0 a7.5 7.5 0 1 0 -15 0zM906.26 611.74 a7.5 7.5 0 1 0 15 0 a7.5 7.5 0 1 0 -15 0zM906.26 536.74 a7.5 7.5 0 1 0 15 0 a7.5 7.5 0 1 0 -15 0zM1101.12 499.24 a7.5 7.5 0 1 0 15 0 a7.5 7.5 0 1 0 -15 0zM1166.08 536.74 a7.5 7.5 0 1 0 15 0 a7.5 7.5 0 1 0 -15 0zM1166.08 611.74 a7.5 7.5 0 1 0 15 0 a7.5 7.5 0 1 0 -15 0zM1101.12 649.24 a7.5 7.5 0 1 0 15 0 a7.5 7.5 0 1 0 -15 0zM1360.94 49.24 a7.5 7.5 0 1 0 15 0 a7.5 7.5 0 1 0 -15 0zM1425.89 86.74 a7.5 7.5 0 1 0 15 0 a7.5 7.5 0 1 0 -15 0zM1425.89 161.74 a7.5 7.5 0 1 0 15 0 a7.5 7.5 0 1 0 -15 0zM1360.94 199.24 a7.5 7.5 0 1 0 15 0 a7.5 7.5 0 1 0 -15 0zM1295.99 161.74 a7.5 7.5 0 1 0 15 0 a7.5 7.5 0 1 0 -15 0zM1295.99 86.74 a7.5 7.5 0 1 0 15 0 a7.5 7.5 0 1 0 -15 0zM1360.94 274.24 a7.5 7.5 0 1 0 15 0 a7.5 7.5 0 1 0 -15 0zM1295.99 311.74 a7.5 7.5 0 1 0 15 0 a7.5 7.5 0 1 0 -15 0zM1231.03 274.24 a7.5 7.5 0 1 0 15 0 a7.5 7.5 0 1 0 -15 0zM1231.03 199.24 a7.5 7.5 0 1 0 15 0 a7.5 7.5 0 1 0 -15 0zM1360.94 499.24 a7.5 7.5 0 1 0 15 0 a7.5 7.5 0 1 0 -15 0zM1425.89 536.74 a7.5 7.5 0 1 0 15 0 a7.5 7.5 0 1 0 -15 0zM1425.89 611.74 a7.5 7.5 0 1 0 15 0 a7.5 7.5 0 1 0 -15 0zM1360.94 649.24 a7.5 7.5 0 1 0 15 0 a7.5 7.5 0 1 0 -15 0zM1295.99 611.74 a7.5 7.5 0 1 0 15 0 a7.5 7.5 0 1 0 -15 0zM1295.99 536.74 a7.5 7.5 0 1 0 15 0 a7.5 7.5 0 1 0 -15 0zM1490.85 49.24 a7.5 7.5 0 1 0 15 0 a7.5 7.5 0 1 0 -15 0zM1555.8 86.74 a7.5 7.5 0 1 0 15 0 a7.5 7.5 0 1 0 -15 0zM1555.8 161.74 a7.5 7.5 0 1 0 15 0 a7.5 7.5 0 1 0 -15 0zM1490.85 199.24 a7.5 7.5 0 1 0 15 0 a7.5 7.5 0 1 0 -15 0zM1490.85 274.24 a7.5 7.5 0 1 0 15 0 a7.5 7.5 0 1 0 -15 0zM1425.89 311.74 a7.5 7.5 0 1 0 15 0 a7.5 7.5 0 1 0 -15 0z" fill="rgba(80, 86, 99, 0.15)"></path><path d="M53.81 30.69L97.98 56.19L97.98 107.19L53.81 132.69L9.64 107.19L9.64 56.19zM186.31 260.19L230.48 285.69L230.48 336.69L186.31 362.19L142.15 336.69L142.15 285.69zM274.65 -45.81L318.82 -20.31L318.82 30.69L274.65 56.19L230.48 30.69L230.48 -20.31zM274.65 413.19L318.82 438.69L318.82 489.69L274.65 515.19L230.48 489.69L230.48 438.69zM362.99 107.19L407.16 132.69L407.16 183.69L362.99 209.19L318.82 183.69L318.82 132.69zM407.16 183.69L451.33 209.19L451.33 260.19L407.16 285.69L362.99 260.19L362.99 209.19zM362.99 413.19L407.16 438.69L407.16 489.69L362.99 515.19L318.82 489.69L318.82 438.69zM495.49 183.69L539.66 209.19L539.66 260.19L495.49 285.69L451.33 260.19L451.33 209.19zM451.33 413.19L495.49 438.69L495.49 489.69L451.33 515.19L407.16 489.69L407.16 438.69zM539.66 -45.81L583.83 -20.31L583.83 30.69L539.66 56.19L495.49 30.69L495.49 -20.31zM583.83 489.69L628 515.19L628 566.19L583.83 591.69L539.66 566.19L539.66 515.19zM628 -45.81L672.17 -20.31L672.17 30.69L628 56.19L583.83 30.69L583.83 -20.31zM672.17 489.69L716.34 515.19L716.34 566.19L672.17 591.69L628 566.19L628 515.19zM716.34 107.19L760.51 132.69L760.51 183.69L716.34 209.19L672.17 183.69L672.17 132.69zM804.67 -45.81L848.84 -20.31L848.84 30.69L804.67 56.19L760.51 30.69L760.51 -20.31zM893.01 107.19L937.18 132.69L937.18 183.69L893.01 209.19L848.84 183.69L848.84 132.69zM893.01 260.19L937.18 285.69L937.18 336.69L893.01 362.19L848.84 336.69L848.84 285.69zM981.35 -45.81L1025.52 -20.31L1025.52 30.69L981.35 56.19L937.18 30.69L937.18 -20.31zM1025.52 489.69L1069.69 515.19L1069.69 566.19L1025.52 591.69L981.35 566.19L981.35 515.19zM1113.85 336.69L1158.02 362.19L1158.02 413.19L1113.85 438.69L1069.69 413.19L1069.69 362.19zM1202.19 183.69L1246.36 209.19L1246.36 260.19L1202.19 285.69L1158.02 260.19L1158.02 209.19zM1290.53 336.69L1334.7 362.19L1334.7 413.19L1290.53 438.69L1246.36 413.19L1246.36 362.19zM1290.53 489.69L1334.7 515.19L1334.7 566.19L1290.53 591.69L1246.36 566.19L1246.36 515.19z" stroke="rgba(173, 193, 215, 0.15)" stroke-width="2"></path></g><defs><mask id="SvgjsMask1060"><rect width="1440" height="560" fill="#ffffff"></rect></mask></defs></svg>